<?xml version="1.0" encoding="UTF-8" standalone="no"?>
<svg
   width="29.790821"
   height="39.471802"
   viewBox="0 0 29.790821 39.471802"
   fill="none"
   version="1.1"
   id="svg22"
   sodipodi:docname="logo.e9e3db40.svg"
   xmlns:inkscape="http://www.inkscape.org/namespaces/inkscape"
   xmlns:sodipodi="http://sodipodi.sourceforge.net/DTD/sodipodi-0.dtd"
   xmlns="http://www.w3.org/2000/svg"
   xmlns:svg="http://www.w3.org/2000/svg">
  <defs
     id="defs26" />
  <sodipodi:namedview
     id="namedview24"
     pagecolor="#ffffff"
     bordercolor="#000000"
     borderopacity="0.25"
     inkscape:showpageshadow="2"
     inkscape:pageopacity="0.0"
     inkscape:pagecheckerboard="0"
     inkscape:deskcolor="#d1d1d1"
     showgrid="false" />
  <path
     fill-rule="evenodd"
     clip-rule="evenodd"
     d="m 25.0869,27.122 -7.6307,7.6307 c -0.8049,0.8049 -1.8961,1.1507 -2.9463,1.0366 -0.7898,-0.0859 -1.5571,-0.4313 -2.1625,-1.0366 L 4.7166896,27.122 c -0.70488,-0.7049 -1.05757,-1.6293 -1.05805,-2.5532 -4.9e-4,-0.9249 0.35219,-1.8498 1.05805,-2.5556 L 12.3474,14.3824 c 0.7834,-0.7834 1.8366,-1.1317 2.8605,-1.0453 0.82,0.0692 1.621,0.4175 2.2483,1.0453 l 7.6307,7.6308 c 0.7049,0.7048 1.0576,1.6288 1.0581,2.5527 5e-4,0.9253 -0.3522,1.8502 -1.0581,2.5561 z m 4.2254,-5.2259 0.0068,-0.0029 -0.0375,-0.1015 C 29.2533,21.7176 29.2299,21.6434 29.1991,21.5702 L 24.5713,9.1122 21.786,13.1024 14.905,0 c 0,0 -10.8492904,16.1371 -13.6014904,20.2517 l 0.00586,5e-4 c -2.02195299,3.021 -1.70341599,7.1439 0.96439,9.8117 l 7.13171,7.1312 c 3.0356304,3.0356 7.9575304,3.0356 10.9926304,0 l 7.1318,-7.1312 c 2.2097,-2.2102 2.7907,-5.4141 1.7824,-8.1678 z"
     fill="#f12c4c"
     id="path2" />
  <path
     fill-rule="evenodd"
     clip-rule="evenodd"
     d="m 14.9019,17.1818 c -1.2396,0 -2.2444,1.0048 -2.2444,2.2444 0,1.2395 1.0048,2.2443 2.2444,2.2443 1.2395,0 2.2444,-1.0048 2.2444,-2.2443 0,-1.2396 -1.0049,-2.2444 -2.2444,-2.2444 z"
     fill="#f12c4c"
     id="path4" />
  <path
     fill-rule="evenodd"
     clip-rule="evenodd"
     d="m 14.9019,27.4645 c -1.2396,0 -2.2444,1.0049 -2.2444,2.2444 0,1.2395 1.0048,2.2444 2.2444,2.2444 1.2395,0 2.2444,-1.0049 2.2444,-2.2444 0,-1.2395 -1.0049,-2.2444 -2.2444,-2.2444 z"
     fill="#f12c4c"
     id="path6" />
  <path
     fill-rule="evenodd"
     clip-rule="evenodd"
     d="m 20.0433,22.323 c -1.2395,0 -2.2444,1.0049 -2.2444,2.2444 0,1.2395 1.0049,2.2444 2.2444,2.2444 1.2395,0 2.2444,-1.0049 2.2444,-2.2444 0,-1.2395 -1.0049,-2.2444 -2.2444,-2.2444 z"
     fill="#f12c4c"
     id="path8" />
  <path
     fill-rule="evenodd"
     clip-rule="evenodd"
     d="m 7.5157196,24.5674 c 0,1.2395 1.00487,2.2444 2.24487,2.2444 1.2395104,0 2.2444104,-1.0049 2.2444104,-2.2444 0,-1.2395 -1.0049,-2.2444 -2.2444104,-2.2444 -1.24,0 -2.24487,1.0049 -2.24487,2.2444 z"
     fill="#f12c4c"
     id="path10" />
</svg>
