<svg width="224" height="36" viewBox="0 0 224 36" fill="none" xmlns="http://www.w3.org/2000/svg">
<path d="M62.758 0.615967V35.3727H56.6993V0.615967H62.758Z" fill="#0ED41D"/>
<path d="M74.5976 35.3727H67.9078L80.1111 4.47838C81.3935 1.23698 83.7665 0 87.4219 0C91.0773 0 93.4048 1.23698 94.6267 4.47838L106.365 35.3727H99.62L89.0678 7.4118C88.9601 7.04715 88.7302 6.73068 88.4166 6.51554C88.1031 6.30041 87.7251 6.19971 87.3461 6.23036C86.9662 6.21088 86.5902 6.31564 86.275 6.52879C85.9598 6.74194 85.7226 7.05189 85.5992 7.4118L74.5976 35.3727Z" fill="#0ED41D"/>
<path d="M128.884 0.615967C137.068 0.615967 140.496 4.47838 140.496 10.1433C140.496 14.1824 138.749 16.5806 135.503 17.8681C138.8 19.2061 140.653 21.781 140.653 25.7949C140.653 31.3487 137.204 35.3878 129.015 35.3878H113.601C111.642 35.3878 110.718 34.4588 110.718 32.5554V3.44841C110.718 1.54497 111.642 0.615967 113.601 0.615967H128.884ZM116.68 15.2932H129.035C132.64 15.2932 134.392 13.9552 134.392 11.1228C134.392 8.39129 132.796 6.57873 129.086 6.57873H117.347C117.26 6.56647 117.172 6.5737 117.089 6.59989C117.006 6.62609 116.929 6.67058 116.865 6.73012C116.801 6.78966 116.752 6.86273 116.72 6.94399C116.688 7.02524 116.674 7.11263 116.68 7.19975V15.2932ZM116.68 28.7788C116.68 29.1928 116.938 29.3493 117.347 29.3493H129.192C132.847 29.3493 134.543 27.6478 134.543 24.8053C134.543 21.8719 132.741 20.3269 129.192 20.3269H116.68V28.7788Z" fill="#263C43"/>
<path d="M165.125 8.1843C171.562 8.1843 174.288 11.2742 174.288 16.5251C174.288 21.5235 171.764 24.3509 165.074 24.3509H152.149V26.3099C152.149 28.4708 153.335 30.0663 156.319 30.0663H172.95V35.3727H156.319C149.524 35.3727 146.848 31.5608 146.848 26.4109V17.1663C146.848 12.0164 149.524 8.20449 156.319 8.20449L165.125 8.1843ZM152.149 20.0795H164.918C167.856 20.0795 168.957 18.8425 168.957 16.8381C168.957 14.8337 167.77 13.4402 165.094 13.4402H156.319C153.335 13.4402 152.149 15.0862 152.149 17.1966V20.0795Z" fill="#263C43"/>
<path d="M181.958 8.1843V1.75198H187.466V8.1843H194.984V13.4402H187.466V26.3099C187.466 29.3392 188.547 30.3793 191.122 30.3793H194.888V35.3727H189.991C184.376 35.3727 181.958 33.1057 181.958 26.0019V13.4402H178.252V8.1843H181.958Z" fill="#263C43"/>
<path d="M222.94 8.1843V13.4402H207.909C205.385 13.4402 204.375 14.45 204.375 16.5251C204.375 18.4336 205.198 19.4636 208.237 19.4636H214.579C222.097 19.4636 224 22.912 224 27.1329C224 31.9748 221.476 35.3727 215.094 35.3727H199.306V30.0663H215.114C217.638 30.0663 218.648 29.1928 218.648 27.0824C218.648 24.9719 217.512 24.053 214.786 24.053H208.369C200.851 24.053 198.998 20.2966 198.998 16.1262C198.998 11.2338 201.522 8.19439 207.854 8.19439L222.94 8.1843Z" fill="#263C43"/>
<path d="M44.4304 0.333252H40.3913L29.2837 34.161H33.3228L44.4304 0.333252Z" fill="#0ED41D"/>
<path opacity="0.5" d="M29.7886 0.333252H25.7495L14.6418 34.161H18.681L29.7886 0.333252Z" fill="#0ED41D"/>
<path opacity="0.2" d="M15.1467 0.333252H11.1076L0 34.161H4.03913L15.1467 0.333252Z" fill="#0ED41D"/>
</svg>
