<svg width="27" height="34" viewBox="0 0 27 34" fill="none" xmlns="http://www.w3.org/2000/svg">
<path d="M1.80108 33.4846C1.51411 33.3331 1.19791 33.2178 0.946366 33.0232C0.731927 32.861 0.559575 32.6523 0.443138 32.4137C0.3267 32.175 0.269417 31.9132 0.275883 31.6492C0.275883 21.874 0.275883 12.0996 0.275883 2.32615C0.276822 1.837 0.477577 1.36823 0.834008 1.02291C1.19044 0.677597 1.67337 0.483999 2.17662 0.484685C9.57052 0.484685 16.9641 0.484685 24.3574 0.484685C24.6094 0.482619 24.8592 0.529329 25.0924 0.622092C25.3256 0.714854 25.5374 0.851812 25.7156 1.02498C25.8938 1.19815 26.0347 1.40406 26.1301 1.6307C26.2255 1.85735 26.2736 2.1002 26.2715 2.34509C26.275 6.222 26.275 10.0992 26.2715 13.9767C26.2715 14.433 25.9978 14.7317 25.5957 14.7231C25.1936 14.7145 24.9473 14.4244 24.9473 13.9827C24.9473 10.2028 24.9473 6.4223 24.9473 2.64124C24.9473 1.94477 24.7702 1.77345 24.0412 1.77345H2.49016C1.78602 1.77345 1.60445 1.94563 1.60445 2.62574V31.3341C1.60445 32.016 1.78779 32.195 2.48396 32.195H24.0652C24.7631 32.195 24.9509 32.0151 24.9509 31.3341C24.9509 27.5531 24.9509 23.7723 24.9509 19.9918C24.9509 19.6956 25.0288 19.4288 25.3149 19.3332C25.5291 19.2727 25.7577 19.2821 25.9659 19.3599C26.2219 19.458 26.2839 19.712 26.283 19.9806C26.2768 21.2909 26.283 22.6012 26.283 23.9115V31.4874C26.283 32.4912 25.8206 33.1093 24.834 33.4304C24.8059 33.4453 24.7802 33.4642 24.7578 33.4864L1.80108 33.4846Z" fill="#0ED41D"/>
<path d="M13.2409 10.4186C10.3004 10.4186 7.36043 10.4186 4.42106 10.4186C3.68769 10.4186 3.48929 10.2301 3.4884 9.52673C3.4884 7.79804 3.4884 6.06878 3.4884 4.33895C3.4884 3.67605 3.71957 3.4548 4.40511 3.4548H22.145C22.8279 3.4548 23.059 3.67692 23.0599 4.34067C23.0599 6.06936 23.0599 7.79862 23.0599 9.52845C23.0599 10.2292 22.8597 10.4186 22.1264 10.4186C19.1646 10.4198 16.2028 10.4198 13.2409 10.4186ZM4.85594 9.10317H21.6844V4.78403H4.85594V9.10317Z" fill="#0ED41D"/>
<path d="M8.09406 21.0404C6.84639 21.0404 5.59843 21.0404 4.35017 21.0404C3.73017 21.0404 3.49014 20.8071 3.48926 20.2001C3.48926 17.9894 3.48926 15.7797 3.48926 13.5712C3.48926 12.9686 3.73726 12.7404 4.35991 12.7404H11.814C12.45 12.7404 12.6794 12.9591 12.6803 13.5652C12.6803 15.7875 12.6803 18.0092 12.6803 20.2303C12.6803 20.8174 12.4456 21.0438 11.838 21.0438C10.5903 21.0427 9.34232 21.0415 8.09406 21.0404ZM11.3287 19.7198V14.0662H4.86831V19.7198H11.3287Z" fill="#0ED41D"/>
<path d="M18.4516 21.0404C17.2033 21.0404 15.9554 21.0404 14.7077 21.0404C14.1028 21.0404 13.8689 20.8123 13.868 20.2234C13.868 18.0023 13.868 15.7806 13.868 13.5583C13.868 12.9678 14.1019 12.737 14.7033 12.737C17.211 12.737 19.7181 12.737 22.2247 12.737C22.8013 12.737 23.0573 12.9764 23.0582 13.5385C23.0623 15.7711 23.0623 18.0034 23.0582 20.2355C23.0582 20.8123 22.8031 21.0404 22.1955 21.0404C20.9472 21.0416 19.6992 21.0416 18.4516 21.0404ZM21.6862 14.062H15.2152V19.7138H21.6862V14.062Z" fill="#0ED41D"/>
<path d="M8.10298 30.5146H4.35909C3.73909 30.5146 3.49109 30.2813 3.49021 29.6821C3.48666 27.4713 3.48666 25.2617 3.49021 23.0532C3.49021 22.4505 3.73466 22.2147 4.352 22.2147C6.84793 22.2147 9.34386 22.2147 11.8398 22.2147C12.4483 22.2147 12.6812 22.4402 12.6821 23.0291C12.6821 25.2508 12.6821 27.4725 12.6821 29.6942C12.6821 30.2968 12.45 30.518 11.815 30.5189L8.10298 30.5146ZM4.85508 29.1836H11.3287V23.5413H4.85508V29.1836Z" fill="#0ED41D"/>
<path d="M18.4826 22.2104C19.7302 22.2104 20.9782 22.2104 22.2264 22.2104C22.803 22.2104 23.0572 22.448 23.0581 23.0127C23.0623 25.2453 23.0623 27.4779 23.0581 29.7105C23.0581 30.2736 22.8021 30.5137 22.2273 30.5137C19.709 30.5137 17.1909 30.5137 14.6731 30.5137C14.1142 30.5137 13.8689 30.271 13.8689 29.7269C13.8689 27.4834 13.8689 25.2402 13.8689 22.9972C13.8689 22.4506 14.1125 22.2121 14.6722 22.2112C15.9423 22.2089 17.2124 22.2086 18.4826 22.2104ZM15.2196 23.531V29.1845H21.6853V23.531H15.2196Z" fill="#0ED41D"/>
<path d="M25.5966 16.333C25.6847 16.3285 25.7728 16.3417 25.8554 16.3717C25.938 16.4018 26.0134 16.448 26.0768 16.5076C26.1402 16.5673 26.1903 16.6389 26.224 16.7182C26.2576 16.7975 26.2741 16.8826 26.2724 16.9683C26.2704 17.1357 26.2015 17.2956 26.0802 17.4144C25.959 17.5332 25.7949 17.6014 25.6228 17.6047C25.4507 17.6079 25.284 17.5459 25.1581 17.4318C25.0322 17.3177 24.957 17.1604 24.9483 16.9933C24.943 16.9078 24.956 16.8222 24.9863 16.7418C25.0166 16.6613 25.0637 16.5879 25.1245 16.5259C25.1853 16.4639 25.2587 16.4148 25.3399 16.3816C25.4211 16.3485 25.5085 16.3319 25.5966 16.333Z" fill="#0ED41D"/>
<path d="M8.76099 17.5495C8.76099 17.8077 8.76896 18.0118 8.76099 18.2141C8.76165 18.2999 8.7444 18.385 8.71028 18.4642C8.67616 18.5434 8.62587 18.6151 8.56246 18.6749C8.49905 18.7347 8.42383 18.7813 8.34134 18.8121C8.25886 18.8428 8.17081 18.857 8.08254 18.8537C7.7132 18.8494 7.45457 18.6032 7.43508 18.2244C7.42534 18.0126 7.43508 17.8008 7.43508 17.5512C7.21277 17.5512 7.02854 17.5512 6.84432 17.5512C6.37578 17.5391 6.06312 17.2757 6.05781 16.8952C6.05249 16.5147 6.36338 16.2392 6.83015 16.2297C7.01614 16.2297 7.20126 16.2297 7.43154 16.2297C7.43154 15.9886 7.42357 15.7777 7.43154 15.5668C7.44926 15.1716 7.71408 14.9203 8.09937 14.9237C8.48465 14.9272 8.74505 15.1932 8.75922 15.5823C8.76719 15.7837 8.75922 15.9861 8.75922 16.2306C8.9895 16.2306 9.19587 16.2228 9.40047 16.2306C9.83093 16.2512 10.1144 16.5121 10.1188 16.8797C10.1232 17.2473 9.84067 17.5202 9.41642 17.5469C9.21359 17.5606 9.00545 17.5495 8.76099 17.5495Z" fill="#0ED41D"/>
<path d="M18.4711 16.2288C18.89 16.2288 19.3081 16.2228 19.727 16.2288C20.1894 16.2383 20.5038 16.5189 20.4941 16.8995C20.4843 17.28 20.1823 17.5417 19.735 17.546C18.8865 17.5557 18.038 17.5557 17.1895 17.546C16.7201 17.5408 16.4198 17.2636 16.4278 16.8736C16.4357 16.4836 16.7271 16.2443 17.1815 16.2271H18.4711V16.2288Z" fill="#0ED41D"/>
<path d="M8.10116 27.2156C7.88681 27.4464 7.74687 27.6177 7.58833 27.7614C7.46592 27.8804 7.29994 27.9472 7.12688 27.9472C6.95381 27.9472 6.78783 27.8804 6.66542 27.7614C6.60074 27.7061 6.54845 27.6385 6.51179 27.5627C6.47513 27.4869 6.45488 27.4046 6.45231 27.3209C6.44973 27.2371 6.46488 27.1538 6.49682 27.076C6.52876 26.9982 6.5768 26.9277 6.63796 26.8687C6.79208 26.7034 6.99225 26.5777 7.25265 26.3676C7.05058 26.2202 6.85691 26.0621 6.67251 25.8941C6.37491 25.5885 6.38465 25.2183 6.67251 24.9523C6.93822 24.7078 7.32616 24.7164 7.62022 24.9902C7.77079 25.1305 7.89921 25.2932 8.11621 25.5326C8.29335 25.3148 8.41204 25.1297 8.56881 24.9833C8.86287 24.7078 9.25081 24.7096 9.51652 24.9609C9.78223 25.2123 9.7902 25.6101 9.49792 25.9079C9.35355 26.0543 9.18349 26.1774 8.94258 26.3806C9.11422 26.4975 9.2792 26.6233 9.43681 26.7576C9.78135 27.0865 9.81058 27.4679 9.53069 27.7494C9.25081 28.0309 8.83895 28.0077 8.48733 27.6633C8.3651 27.5445 8.26147 27.4042 8.10116 27.2156Z" fill="#0ED41D"/>
<path d="M18.4525 27.9345C18.0327 27.9345 17.612 27.9396 17.1921 27.9345C16.7236 27.9267 16.4198 27.6547 16.4269 27.263C16.4349 26.8842 16.7254 26.6302 17.1877 26.6259C18.0392 26.6184 18.89 26.6184 19.7403 26.6259C20.1956 26.6311 20.4932 26.8988 20.4941 27.2733C20.4949 27.6478 20.1743 27.9285 19.712 27.9345C19.2921 27.9388 18.8759 27.9345 18.4525 27.9345Z" fill="#0ED41D"/>
<path d="M18.441 25.9432C18.0105 25.9432 17.5792 25.9432 17.1487 25.9432C16.7183 25.9432 16.4331 25.6849 16.4286 25.3079C16.4242 24.9308 16.7156 24.6588 17.1319 24.657C18.0176 24.653 18.9015 24.653 19.7837 24.657C20.1947 24.657 20.4993 24.9454 20.4923 25.3079C20.4852 25.6703 20.1831 25.9389 19.7651 25.9432C19.3249 25.9458 18.8829 25.9432 18.441 25.9432Z" fill="#0ED41D"/>
</svg>
