<svg width="16" height="17" viewBox="0 0 16 17" fill="none" xmlns="http://www.w3.org/2000/svg">
<path fill-rule="evenodd" clip-rule="evenodd" d="M2.37401 6.82868L5.03294 9.48627L0.12373 16.4671L9.99506 6.60076L0.123752 16.4671L7.1081 11.5604L9.76703 14.2179C9.96234 14.4132 10.2736 14.4085 10.4306 14.1814C10.936 13.4504 11.831 11.6943 11.3042 8.9341L15.1994 6.31143C15.7213 5.96005 15.7928 5.22006 15.3479 4.77535L13.5846 3.01301L11.8214 1.25068C11.3765 0.805961 10.6361 0.877434 10.2845 1.39904L7.66053 5.29224C4.89892 4.76571 3.14191 5.6603 2.41055 6.16546C2.18332 6.32241 2.1787 6.63347 2.37401 6.82868Z" fill="#0ED41D"/>
</svg>
