<svg width="26" height="32" viewBox="0 0 26 32" fill="none" xmlns="http://www.w3.org/2000/svg">
<path d="M0.688843 31.5002V3.87739H7.63066V2.78457H9.86366C10.4598 1.28377 11.4944 0.436225 13.0668 0.470223C14.5543 0.501794 15.5451 1.32019 16.0927 2.74693H18.3063V3.83974H25.3112V31.5002H0.688843ZM24.3362 30.5434V4.86821H18.3621L18.3026 5.8651H7.66952L7.60759 4.87064H1.68573V30.5434H24.3362ZM8.63363 4.87792H17.324V3.76568H8.63363V4.87792ZM14.978 2.73236C14.5373 1.81682 13.6424 1.32019 12.7281 1.42705C11.9267 1.52054 11.1981 2.09124 11.067 2.73236H14.978Z" fill="#0ED41D"/>
<path d="M22.6532 10.8569V24.5596H3.32373V10.8569H22.6532ZM7.54079 19.3493H15.1504V16.0708H7.54079V19.3493ZM15.1456 15.0375V11.8173H7.56872V15.0375H15.1456ZM15.1565 23.6052V20.4105H7.55779V23.6052H15.1565ZM6.50019 19.3639V16.0708H4.31455V19.3639H6.50019ZM16.2105 16.0599V19.3578H18.4058V16.0599H16.2105ZM19.4671 16.0526V19.3966C20.1276 19.3966 20.7493 19.41 21.3698 19.3845C21.4815 19.3845 21.6794 19.2218 21.6819 19.1319C21.7037 18.1108 21.6952 17.0896 21.6952 16.0526H19.4671ZM4.29998 11.8101V15.0072H6.51961V11.8101H4.29998ZM16.2129 11.8101V15.0266H18.4228V11.8101H16.2129ZM21.6649 15.0412V11.8173H19.4719V15.0375L21.6649 15.0412ZM6.52204 20.4215H4.30848V23.5991H6.52204V20.4215ZM18.4216 23.6052V20.4154H16.2202V23.6052H18.4216ZM19.4501 23.6368C20.1228 23.6368 20.7275 23.6489 21.3297 23.6258C21.4511 23.6258 21.6782 23.4886 21.6794 23.4109C21.7037 22.4116 21.6952 21.4123 21.6952 20.4239H19.4476L19.4501 23.6368Z" fill="#0ED41D"/>
</svg>
